<?xml version="1.0" standalone="no"?>
<!DOCTYPE svg PUBLIC "-//W3C//DTD SVG 20010904//EN"
 "http://www.w3.org/TR/2001/REC-SVG-20010904/DTD/svg10.dtd">
<svg version="1.0" xmlns="http://www.w3.org/2000/svg"
 width="50.000000pt" height="50.000000pt" viewBox="0 0 50.000000 50.000000"
 preserveAspectRatio="xMidYMid meet">

<g transform="translate(0.000000,50.000000) scale(0.100000,-0.100000)"
fill="#000000" stroke="none">
<path d="M20 370 l0 -100 230 0 230 0 0 100 0 100 -230 0 -230 0 0 -100z m96
9 c10 -17 -13 -36 -27 -22 -12 12 -4 33 11 33 5 0 12 -5 16 -11z m100 0 c10
-17 -13 -36 -27 -22 -12 12 -4 33 11 33 5 0 12 -5 16 -11z m100 0 c10 -17 -13
-36 -27 -22 -12 12 -4 33 11 33 5 0 12 -5 16 -11z m100 0 c10 -17 -13 -36 -27
-22 -12 12 -4 33 11 33 5 0 12 -5 16 -11z"/>
<path d="M201 216 c-111 -62 -22 -227 94 -174 36 16 73 88 45 88 -5 0 -10 -7
-10 -15 0 -27 -47 -65 -80 -65 -41 0 -80 39 -80 80 0 62 77 102 126 65 19 -14
18 -14 -3 -15 -13 0 -23 -4 -23 -10 0 -5 16 -10 35 -10 33 0 35 2 35 35 0 33
-14 48 -22 24 -3 -9 -9 -9 -25 0 -28 14 -62 14 -92 -3z"/>
</g>
</svg>
