<?xml version="1.0" standalone="no"?>
<!DOCTYPE svg PUBLIC "-//W3C//DTD SVG 20010904//EN"
 "http://www.w3.org/TR/2001/REC-SVG-20010904/DTD/svg10.dtd">
<svg version="1.0" xmlns="http://www.w3.org/2000/svg"
 width="30.000000pt" height="30.000000pt" viewBox="0 0 30.000000 30.000000"
 preserveAspectRatio="xMidYMid meet">

<g transform="translate(0.000000,30.000000) scale(0.100000,-0.100000)"
fill="#000000" stroke="none">
<path d="M204 255 c-18 -14 -18 -15 9 -41 16 -14 29 -24 30 -23 2 2 9 12 16
22 12 15 11 20 -4 37 -22 24 -25 24 -51 5z"/>
<path d="M112 167 c-55 -56 -62 -89 -19 -101 18 -5 33 6 74 52 l51 57 -21 23
c-11 12 -23 22 -27 22 -3 0 -29 -24 -58 -53z"/>
<path d="M37 63 c-4 -3 -7 -12 -7 -20 0 -15 26 -18 34 -4 7 11 -18 33 -27 24z"/>
</g>
</svg>
