<?xml version="1.0" standalone="no"?>
<!DOCTYPE svg PUBLIC "-//W3C//DTD SVG 20010904//EN"
 "http://www.w3.org/TR/2001/REC-SVG-20010904/DTD/svg10.dtd">
<svg version="1.0" xmlns="http://www.w3.org/2000/svg"
 width="50.000000pt" height="50.000000pt" viewBox="0 0 50.000000 50.000000"
 preserveAspectRatio="xMidYMid meet">

<g transform="translate(0.000000,50.000000) scale(0.100000,-0.100000)"
fill="#000000" stroke="none">
<path d="M201 450 c-14 -12 -38 -20 -62 -20 -37 0 -39 -1 -39 -32 0 -22 -9
-42 -32 -65 l-31 -32 24 -21 c58 -50 59 -49 59 45 l0 85 130 0 130 0 0 -85 c0
-94 -1 -94 60 -46 l25 20 -32 33 c-23 24 -33 43 -33 66 0 31 -2 32 -41 32 -26
0 -50 7 -66 20 -32 25 -61 25 -92 0z"/>
<path d="M150 350 c0 -6 40 -10 100 -10 60 0 100 4 100 10 0 6 -40 10 -100 10
-60 0 -100 -4 -100 -10z"/>
<path d="M150 300 c0 -6 28 -10 65 -10 37 0 65 4 65 10 0 6 -28 10 -65 10 -37
0 -65 -4 -65 -10z"/>
<path d="M30 179 l0 -90 61 47 c33 25 57 50 52 53 -39 34 -101 81 -107 81 -3
0 -6 -41 -6 -91z"/>
<path d="M402 227 l-53 -42 33 -28 c18 -16 45 -37 61 -48 l27 -20 0 90 c0 50
-3 91 -7 91 -5 -1 -32 -20 -61 -43z"/>
<path d="M132 143 c-148 -114 -149 -113 118 -113 188 0 220 2 220 15 0 19
-195 175 -219 175 -10 0 -64 -35 -119 -77z"/>
</g>
</svg>
