<?xml version="1.0" standalone="no"?>
<!DOCTYPE svg PUBLIC "-//W3C//DTD SVG 20010904//EN"
 "http://www.w3.org/TR/2001/REC-SVG-20010904/DTD/svg10.dtd">
<svg version="1.0" xmlns="http://www.w3.org/2000/svg"
 width="64.000000pt" height="64.000000pt" viewBox="0 0 64.000000 64.000000"
 preserveAspectRatio="xMidYMid meet">

<g transform="translate(0.000000,64.000000) scale(0.100000,-0.100000)"
fill="#000000" stroke="none">
<path d="M240 614 c-109 -29 -188 -112 -217 -228 -15 -61 -15 -71 0 -131 30
-122 110 -202 232 -232 60 -15 70 -15 131 0 76 19 143 63 185 122 35 49 63
154 54 204 -26 147 -99 231 -232 266 -69 18 -82 18 -153 -1z m145 -222 l31
-71 22 44 c12 25 26 45 32 45 5 0 20 -16 32 -35 18 -26 31 -35 58 -37 52 -4
47 -32 -6 -36 -37 -3 -43 0 -62 29 l-20 33 -23 -47 c-13 -26 -28 -47 -35 -47
-6 0 -24 30 -41 67 l-29 67 -30 -114 c-20 -79 -33 -115 -43 -115 -9 0 -27 31
-45 73 l-30 74 -21 -26 c-24 -29 -37 -32 -55 -12 -6 8 -26 16 -43 18 -20 2
-32 8 -32 18 0 21 51 25 79 7 21 -14 23 -13 42 14 23 35 41 37 53 7 5 -13 18
-43 28 -67 l19 -44 28 104 c15 57 29 110 32 117 8 27 29 4 59 -66z"/>
</g>
</svg>
