<?xml version="1.0" standalone="no"?>
<!DOCTYPE svg PUBLIC "-//W3C//DTD SVG 20010904//EN"
 "http://www.w3.org/TR/2001/REC-SVG-20010904/DTD/svg10.dtd">
<svg version="1.0" xmlns="http://www.w3.org/2000/svg"
 width="50.000000pt" height="50.000000pt" viewBox="0 0 50.000000 50.000000"
 preserveAspectRatio="xMidYMid meet">

<g transform="translate(0.000000,50.000000) scale(0.100000,-0.100000)"
fill="#000000" stroke="none">
<path d="M5 488 c-3 -8 -4 -119 -3 -248 l3 -235 195 0 195 0 3 56 c2 48 0 57
-14 55 -9 0 -21 7 -27 16 -9 14 -6 23 16 46 15 15 27 31 27 35 0 3 -57 8 -127
9 l-128 3 0 25 0 25 128 3 c70 1 127 6 127 9 0 4 -12 20 -27 35 -22 23 -25 32
-16 46 6 9 18 16 27 16 14 -2 16 7 14 55 l-3 56 -193 3 c-150 2 -194 0 -197
-10z"/>
<path d="M370 363 c0 -4 21 -29 47 -55 l47 -48 -152 0 c-95 0 -152 -4 -152
-10 0 -6 57 -10 152 -10 l152 0 -49 -50 c-27 -27 -46 -53 -42 -57 4 -4 36 21
70 55 l62 62 -60 60 c-56 56 -75 70 -75 53z"/>
</g>
</svg>
