<?xml version="1.0" standalone="no"?>
<!DOCTYPE svg PUBLIC "-//W3C//DTD SVG 20010904//EN"
 "http://www.w3.org/TR/2001/REC-SVG-20010904/DTD/svg10.dtd">
<svg version="1.0" xmlns="http://www.w3.org/2000/svg"
 width="30.000000pt" height="30.000000pt" viewBox="0 0 30.000000 30.000000"
 preserveAspectRatio="xMidYMid meet">

<g transform="translate(0.000000,30.000000) scale(0.100000,-0.100000)"
fill="#000000" stroke="none">
<path d="M54 267 c-2 -7 -3 -65 -2 -128 l3 -114 52 -3 c69 -4 91 16 85 76 -4
40 -2 44 27 55 42 16 40 44 -7 90 -35 34 -43 37 -95 37 -38 0 -59 -4 -63 -13z
m151 -37 l29 -30 -32 0 c-29 0 -32 3 -32 30 0 17 1 30 3 30 2 0 16 -13 32 -30z"/>
<path d="M217 133 c-11 -10 -8 -58 4 -70 8 -8 4 -16 -15 -28 -40 -26 -32 -35
34 -35 66 0 74 9 34 35 -19 12 -23 20 -15 28 17 17 13 64 -5 71 -20 8 -29 8
-37 -1z"/>
</g>
</svg>
